-
 
http://www.Speed. Cd       the fast  and The Hottest Private Tracker on the net 
http://www.Speed. Cd

Please Seed back to make the speed Faster!!
 ............ NFO .............
-
 
http://www.Speed. Cd[img]http://i.imgrz.com/qVSp4.jpg[/img]

VAiN . P R E S E N T S . . .

The Host 2013 CAM XViD - VAiN

iMDB........: http://www.imdb.com/title/tt1517260/
PLOT........: When an unseen enemy threatens mankind by taking 
over their bodies and erasing their memories, Melanie will risk 
everything to protect the people she cares most about, proving 
that love can conquer all in a dangerous new world. 


T E C H N i C A L . i N F O . . .      

General
Complete name                            : The Host 2013 CAM XViD - VAiNThe Host 2013 CAM XViD - VAiN.avi
Format                                   : AVI
Format/Info                              : Audio Video Interleave
File size                                : 1.28 GiB
Duration                                 : 1h 54mn
Overall bit rate                         : 1 604 Kbps
Writing application                      : VirtualDubMod 1.5.10.2 (build 2540/release)
Writing library                          : VirtualDubMod build 2540/release

Video
ID                                       : 0
Format                                   : MPEG-4 Visual
Format profile                           : Advanced Simple@L5
Format settings, BVOP                    : 2
Format settings, QPel                    : No
Format settings, GMC                     : No warppoints
Format settings, Matrix                  : Default (H.263)
Muxing mode                              : Packed bitstream
Codec ID                                 : XVID
Codec ID/Hint                            : XviD
Duration                                 : 1h 54mn
Bit rate                                 : 1 466 Kbps
Width                                    : 720 pixels
Height                                   : 304 pixels
Display aspect ratio                     : 2.35:1
Frame rate                               : 25.000 fps
Color space                              : YUV
Chroma subsampling                       : 4:2:0
Bit depth                                : 8 bits
Scan type                                : Progressive
Compression mode                         : Lossy
Bits/(Pixel*Frame)                       : 0.268
Stream size                              : 1.17 GiB (91%)
Writing library                          : XviD 64

Audio
ID                                       : 1
Format                                   : MPEG Audio
Format version                           : Version 1
Format profile                           : Layer 3
Mode                                     : Joint stereo
Mode extension                           : MS Stereo
Codec ID                                 : 55
Codec ID/Hint                            : MP3
Duration                                 : 1h 54mn
Bit rate mode                            : Constant
Bit rate                                 : 128 Kbps
Channel(s)                               : 2 channels
Sampling rate                            : 44.1 KHz
Compression mode                         : Lossy
Stream size                              : 105 MiB (8%)
Alignment                                : Aligned on interleaves
Interleave, duration                     : 40 ms (1.00 video frame)
Interleave, preload duration             : 522 ms


E N C O D E R S . N O T E S . . .       

SOURCE......: v: The.Host.2013.READNFO.CAM.XviD.HUN-BEOWULF
              A: The_Host_2013_CAM_ENGLISH (Thanks to both :D )
SAMPLE......: Yes
ADDED NOTE..: Tweaked alot of things, glares are still there,
              flicker is only slightly there. Big thanks to syncer
              for syncing & cleaning the audio :bow:
              Check the sample first, 
              Enjoy....


S C R E E N . S H O T S . . .

[img]http://i.imgrz.com/x1Fz.png[/img]

[img]http://i.imgrz.com/7DOhc.png[/img]

[img]http://i.imgrz.com/NzWZs.png[/img]

[img]http://i.imgrz.com/PiOY.png[/img]

[img]http://i.imgrz.com/sCLzM.png[/img]

[img]http://i.imgrz.com/AkP6S.png[/img]

[img]http://i.imgrz.com/RbMZc.jpg[/img]